<svg xmlns="http://www.w3.org/2000/svg" version="1.1" xmlns:xlink="http://www.w3.org/1999/xlink" xmlns:svgjs="http://svgjs.dev/svgjs" width="2000" height="1500" viewBox="0 0 2000 1500"><rect width="2000" height="1500" fill="#ffffff"></rect><g transform="matrix(0.75,0,0,0.75,249.09205304410807,207.54188449306844)"><svg viewBox="0 0 396 287" data-background-color="#ffffff" preserveAspectRatio="xMidYMid meet" height="1449" width="2000" xmlns="http://www.w3.org/2000/svg" xmlns:xlink="http://www.w3.org/1999/xlink"><g id="tight-bounds" transform="matrix(1,0,0,1,0.24030200364461507,-0.2421401881855445)"><svg viewBox="0 0 395.52 287.48428037637103" height="287.48428037637103" width="395.52"><g><svg viewBox="0 0 395.52 287.48428037637103" height="287.48428037637103" width="395.52"><g transform="matrix(1,0,0,1,0,147.87437650043086)"><svg viewBox="0 0 395.52 139.60990387594018" height="139.60990387594018" width="395.52"><g id="textblocktransform"><svg viewBox="0 0 395.52 139.60990387594018" height="139.60990387594018" width="395.52" id="textblock"><g><svg viewBox="0 0 395.52 139.60990387594018" height="139.60990387594018" width="395.52"><g transform="matrix(1,0,0,1,0,0)"><svg width="395.52" viewBox="-0.7793938211021649 -24.17561 147.97652382110215 52.23247417366828" height="139.60990387594018" data-palette-color="#000000"><path d="M9.418 5.308v0c-0.756 2.208 0.456 3.855 3.635 4.944 3.173 1.086 5.098 0.639 5.776-1.342v0c0.361-1.053 0.114-2.103-0.74-3.149-0.856-1.04-1.98-2.048-3.372-3.025-1.398-0.979-2.77-2.026-4.114-3.142-1.349-1.124-2.35-2.502-3.003-4.135-0.653-1.633-0.657-3.392-0.011-5.278v0c2.742-8.01 9.269-10.25 19.582-6.721v0c3.765 1.289 6.374 2.974 7.824 5.057 1.444 2.08 1.735 4.381 0.871 6.904v0c-0.317 0.927-0.741 1.772-1.27 2.535-0.529 0.763-0.98 1.278-1.353 1.545v0l-0.585 0.445-8.477-2.902c0.953-0.498 1.62-1.306 2.002-2.422v0c0.71-2.075-0.291-3.577-3.003-4.505v0c-3.419-1.17-5.499-0.67-6.242 1.499v0c-0.371 1.085-0.122 2.136 0.75 3.152 0.867 1.008 2.01 1.96 3.43 2.855 1.426 0.897 2.829 1.884 4.207 2.963 1.379 1.078 2.394 2.433 3.048 4.066 0.653 1.633 0.635 3.455-0.054 5.467v0c-1.388 4.056-3.633 6.652-6.735 7.788-3.094 1.133-7.163 0.835-12.209-0.892-5.046-1.727-8.189-3.804-9.431-6.23v0c-0.911-1.806-0.962-3.891-0.152-6.256v0c0.307-0.896 0.735-1.838 1.285-2.826v0l0.404-0.718 8.619 2.95-0.292 0.545c-0.173 0.3-0.303 0.576-0.39 0.828zM40.683 25.318v0c-3.867-0.644-6.504-1.972-7.913-3.984v0c-1.051-1.479-1.4-3.284-1.045-5.415v0c0.116-0.697 0.307-1.436 0.572-2.216v0l6.611-18.759 9.775-2.266-2.838 8.094 13.78 2.294-2.415 6.837-13.791-2.297-1.935 5.477c-0.237 0.609-0.397 1.164-0.48 1.664v0c-0.349 2.098 0.476 3.313 2.475 3.646v0c1.065 0.177 2.031-0.125 2.898-0.907 0.859-0.776 1.548-1.891 2.068-3.345v0l8.286 1.379c-2.741 7.857-8.09 11.122-16.048 9.798zM70.251 28.055v0c-3.92-0.047-6.729-0.957-8.428-2.731v0c-1.264-1.302-1.884-3.033-1.858-5.193v0c0.008-0.707 0.084-1.466 0.228-2.277v0l3.674-19.547 9.315-3.729-1.571 8.432 13.969 0.167-1.345 7.125-13.979-0.168-1.079 5.707c-0.141 0.638-0.215 1.211-0.22 1.718v0c-0.025 2.127 0.975 3.202 3.001 3.226v0c1.08 0.013 1.989-0.433 2.726-1.337 0.731-0.898 1.242-2.105 1.534-3.622v0l8.399 0.101c-1.512 8.182-6.3 12.225-14.366 12.128zM112.125 15.754v0c0.129 0.87 0.639 1.24 1.53 1.107 0.884-0.131 1.6-0.41 2.15-0.835v0l0.594 5.694c-1.408 1.544-3.115 2.465-5.12 2.763v0c-3.772 0.561-6.042-0.588-6.81-3.446v0c-1.572 3.206-4.05 5.06-7.433 5.563-3.389 0.504-5.699 0.062-6.93-1.325v0c-0.81-0.87-1.307-1.922-1.491-3.156-0.183-1.233-0.253-2.382-0.209-3.446v0l0.455-16.193 8.516-1.266-0.374 13.674c-0.01 0.615 0.03 1.222 0.12 1.822v0c0.238 1.602 1.257 2.27 3.057 2.002v0c1.503-0.223 2.63-0.92 3.38-2.089v0l0.474-16.398 8.517-1.266-0.465 16.194c-0.004 0.203 0.009 0.403 0.039 0.601zM141.954 6.56v0c0.28 0.834 0.843 1.11 1.691 0.825 0.847-0.284 1.504-0.684 1.971-1.198v0l1.581 5.502c-1.116 1.767-2.635 2.972-4.557 3.617v0c-3.521 1.18-5.903 0.555-7.147-1.876v0c-0.741 3.096-2.663 5.165-5.766 6.205v0c-5.246 1.759-8.626 0.382-10.139-4.131v0c-0.256-0.765-0.461-1.638-0.615-2.62v0l-0.871-5.963c-0.452-3.048-0.046-5.736 1.219-8.066 1.265-2.33 3.528-4.041 6.79-5.134v0c2.016-0.676 3.761-0.779 5.233-0.31v0l-2.243-14.837 8.201-2.75 4.509 30.151c0.032 0.2 0.08 0.395 0.143 0.585zM126.391 5.218l0.579 3.803c0.034 0.312 0.137 0.724 0.309 1.236 0.172 0.512 0.58 0.934 1.226 1.266 0.648 0.338 1.541 0.317 2.678-0.065 1.131-0.379 1.964-1.158 2.497-2.335v0l-1.261-8.542c-0.623-0.684-1.589-0.807-2.897-0.368v0c-2.465 0.827-3.509 2.495-3.131 5.005z" opacity="1" transform="matrix(1,0,0,1,0,0)" fill="#000000" class="wordmark-text-0" data-fill-palette-color="primary" id="text-0"></path></svg></g></svg></g></svg></g></svg></g><g transform="matrix(1,0,0,1,127.95589009298122,0)"><svg viewBox="0 0 139.60821981403754 139.60990387594018" height="139.60990387594018" width="139.60821981403754"><g><svg xmlns="http://www.w3.org/2000/svg" xmlns:xlink="http://www.w3.org/1999/xlink" version="1.1" x="0" y="0" viewBox="5.412824897783869 5.195582772773262 79.76931438294501 79.77027662186998" enable-background="new 0 0 90 90" xml:space="preserve" height="139.60990387594018" width="139.60821981403754" class="icon-icon-0" data-fill-palette-color="accent" id="icon-0"><path d="M54.624 83.27c-10.792 1.801-22.246-1.411-30.727-8.272-8.062-6.522-13.088-16.744-12.728-27.17 0.349-10.096 5.499-20.182 14.078-25.707 8.769-5.647 20.783-5.62 29.498 0.129 8.154 5.379 12.661 15.857 9.907 25.391-1.424 4.931-4.572 9.475-9.052 12.082-4.663 2.714-10.561 3.268-15.615 1.341-4.544-1.733-8.418-5.448-9.851-10.154-1.47-4.826-0.243-10.416 3.327-14.027 3.452-3.492 8.998-4.743 13.484-2.567 4.259 2.065 6.884 7.148 5.307 11.755-0.85 2.483-2.859 4.611-5.423 5.317-2.69 0.741-5.774-0.221-7.439-2.493-1.629-2.222-1.495-5.503 0.597-7.389 1.054-0.95 2.599-1.429 3.984-1.015 0.41 0.122 2.233 0.566 2.058 1.209 0.087-0.652-1.341-0.82-1.755-0.934-1.29-0.356-2.733 0.004-3.719 0.904-1.739 1.586-1.995 4.459-0.597 6.34 1.417 1.906 4.102 2.721 6.348 1.971 2.287-0.765 3.875-3.013 4.245-5.344 0.746-4.703-3.812-8.759-8.323-8.569-4.774 0.201-8.548 4.373-9.111 8.971-1.056 8.621 8.8 14.488 16.466 12.536 8.546-2.177 12.86-12.372 10.766-20.465-2.34-9.045-11.891-14.664-20.877-14.543-9.785 0.131-18.28 7.23-21.955 16.011-4.038 9.649-2.194 21.17 4.201 29.364 6.485 8.309 16.93 13.113 27.352 13.664 5.766 0.305 11.749-0.537 17.004-3.006 4.955-2.328 8.907-6.258 11.976-10.734 6.303-9.194 8.662-20.938 6.135-31.824C79.845 17.355 61.052 3.689 41.936 5.329 23.164 6.939 7.154 22.991 5.551 41.756c-0.918 10.74 2.777 21.76 9.928 29.817 7.078 7.976 17.424 12.875 28.071 13.353 6.118 0.275 12.303-0.876 17.903-3.359-2.472 0.844-4.993 1.695-7.622 1.838 0.506-0.028 0.982-0.246 1.492-0.242-1.79-0.014-3.465 0.776-5.242 0.87 1.034-0.055 2.103-0.271 3.095-0.566 0.337-0.101 1.458-0.578 1.755-0.242-0.207-0.235-1.358 0.182-1.613 0.243-0.926 0.221-1.953 0.452-2.902 0.51 0.426-0.026 4.536-0.711 4.53-0.755 0.008 0.065-4.022 0.607-4.613 0.769 0.714-0.196 1.505-0.245 2.235-0.367 0.292-0.048 2.164-0.591 2.374-0.402C54.91 83.194 54.661 83.264 54.624 83.27 43.928 85.055 57.114 82.88 54.624 83.27z" fill="#61777f" data-fill-palette-color="accent"></path></svg></g></svg></g><g></g></svg></g><defs></defs></svg><rect width="395.52" height="287.48428037637103" fill="none" stroke="none" visibility="hidden"></rect></g></svg></g></svg>